<svg width="19" height="19" viewBox="0 0 19 19" fill="none" xmlns="http://www.w3.org/2000/svg">
<g clip-path="url(#clip0_700_470)">
<path d="M19 6.33335C19 7.63802 18.5044 8.97673 17.7484 10.2632C17.5315 9.71456 17.1974 9.20631 16.7438 8.78673C17.1586 7.94598 17.4167 7.11552 17.4167 6.33335C17.4167 4.18793 15.785 2.37502 13.8542 2.37502C12.0848 2.37502 11.077 3.09148 10.3978 3.7161L7.37042 6.52573C7.09096 6.80598 7.02446 7.27702 7.24138 7.57864C7.38308 7.77577 7.59129 7.89452 7.82642 7.91352C8.05996 7.93489 8.28638 7.84939 8.45025 7.68394L11.7539 4.52123L12.8487 5.66439L11.8687 6.60252L15.6267 9.9006C16.507 10.6733 16.724 11.9708 16.131 12.9184C15.766 13.5011 15.1699 13.893 14.4962 13.9919C14.4503 13.9983 14.4052 14.0038 14.3593 14.0078C14.3561 14.4155 14.2476 14.8192 14.0252 15.1755C13.6602 15.7581 13.0641 16.15 12.3904 16.249C12.2439 16.2696 12.0982 16.2783 11.9526 16.2711C11.9098 16.5736 11.8069 16.8681 11.6399 17.1348C11.2749 17.7175 10.6788 18.1086 10.0051 18.2076C9.89187 18.2242 9.77867 18.2321 9.66704 18.2321C9.10733 18.2321 8.56425 18.0302 8.13833 17.6558L5.681 15.4518C3.08829 13.11 0 9.62748 0 6.33335C0 3.27752 2.3085 0.791685 5.14583 0.791685C6.41488 0.791685 7.38863 1.08935 8.15258 1.47964L6.88671 2.65448C6.40379 2.48506 5.83379 2.37502 5.14583 2.37502C3.21496 2.37502 1.58333 4.18793 1.58333 6.33335C1.58333 8.45027 3.41446 11.271 6.74104 14.2769L9.19046 16.473C9.34642 16.61 9.56254 16.6733 9.77629 16.6424C9.99321 16.6108 10.1793 16.4881 10.2988 16.2957C10.4809 16.0036 10.3906 15.5697 10.0922 15.3085L7.55329 12.8947L8.64263 11.7452L11.5892 14.5271C11.7309 14.6506 11.9502 14.7155 12.1608 14.6823C12.3777 14.6506 12.5638 14.5271 12.6833 14.3355C12.8654 14.0434 12.7751 13.6096 12.4767 13.3475L9.65833 10.796L10.7152 9.61798L13.6776 12.2542C13.836 12.3936 14.0529 12.4585 14.2658 12.4252C14.4828 12.3936 14.6688 12.2701 14.7883 12.0785C14.9704 11.7864 14.8802 11.3525 14.5817 11.0905L10.72 7.70135L9.55621 8.81523C9.12 9.25223 8.51754 9.49923 7.89054 9.49923C7.06246 9.49923 6.36658 9.07489 5.95492 8.50331C5.28596 7.57389 5.42133 6.2336 6.27 5.38493L9.32187 2.55235C10.1468 1.79473 11.51 0.790894 13.8526 0.790894C16.6899 0.790894 18.9984 3.27673 18.9984 6.33256L19 6.33335Z" fill="#001D3D"/>
</g>
<defs>
<clipPath id="clip0_700_470">
<rect width="19" height="19" fill="white"/>
</clipPath>
</defs>
</svg>
